<svg width="482" height="482" viewBox="0 0 482 482" fill="none" xmlns="http://www.w3.org/2000/svg">
<path d="M482 241C482 374.102 374.102 482 241 482C107.898 482 0 374.102 0 241C0 107.898 107.898 0 241 0C374.102 0 482 107.898 482 241Z" fill="#4A7AFF"/>
<path d="M251.575 481.753C379.768 476.219 481.999 370.553 481.999 241C481.999 240.062 481.973 239.128 481.962 238.19L314.675 70.8994L135.808 257.857L235.189 357.238L189.365 419.543L251.575 481.753Z" fill="#0053BF"/>
<path d="M314.678 70.9019V125.474C314.678 125.474 252.023 116.38 252.023 156.801V197.223H308.614L301.543 258.867H252.023V419.546H189.368V258.867L135.807 257.856V197.223H188.357V150.738C188.357 150.738 184.889 81.5846 253.035 68.883C281.332 63.606 314.678 70.9019 314.678 70.9019V70.9019Z" fill="white"/>
<path d="M314.677 125.474V70.9019C314.677 70.9019 281.331 63.606 253.033 68.883C248.613 69.7067 244.502 70.7732 240.666 72.0345V419.546H252.022V258.867H301.538L308.613 197.223H252.022C252.022 197.223 252.022 197.223 252.022 156.801C252.022 116.38 314.677 125.474 314.677 125.474Z" fill="#DCE1EB"/>
</svg>
