<svg width="19" height="19" viewBox="0 0 19 19" fill="none" xmlns="http://www.w3.org/2000/svg">
<g clip-path="url(#clip0_3267_13081)">
<path fill-rule="evenodd" clip-rule="evenodd" d="M6.70588 4.47059C6.08894 4.47059 5.58824 4.97241 5.58824 5.58824C5.58824 6.20406 6.08894 6.70588 6.70588 6.70588C7.32282 6.70588 7.82353 6.20406 7.82353 5.58824C7.82353 4.97241 7.32282 4.47059 6.70588 4.47059ZM6.70588 7.82353C5.47312 7.82353 4.47059 6.821 4.47059 5.58824C4.47059 4.35547 5.47312 3.35294 6.70588 3.35294C7.93865 3.35294 8.94118 4.35547 8.94118 5.58824C8.94118 6.821 7.93865 7.82353 6.70588 7.82353ZM3.91176 10.0588C4.05482 10.0588 4.19788 10.1136 4.30741 10.222L7.22782 13.1424L12.4238 6.90706C12.6361 6.65224 13.0698 6.65224 13.2821 6.90706L17.8824 12.4271V1.11765H1.11765V12.6216L3.51612 10.222C3.62565 10.1136 3.76871 10.0588 3.91176 10.0588ZM1.11765 17.8824H17.8824V14.1729L12.8529 8.13759L7.69388 14.3282C7.59329 14.4489 7.44688 14.5216 7.28929 14.5294C7.14288 14.5384 6.98082 14.478 6.86906 14.3662L3.91176 11.4078L1.11765 14.2019V17.8824ZM18.4412 19H0.558824C0.250353 19 0 18.7496 0 18.4412V0.558824C0 0.250353 0.250353 0 0.558824 0H18.4412C18.7496 0 19 0.250353 19 0.558824V18.4412C19 18.7496 18.7496 19 18.4412 19Z" fill="#8C00E3"/>
</g>
<defs>
<clipPath id="clip0_3267_13081">
<rect width="19" height="19" fill="white"/>
</clipPath>
</defs>
</svg>
