<svg width="482" height="482" viewBox="0 0 482 482" fill="none" xmlns="http://www.w3.org/2000/svg">
<defs>
<linearGradient id="paint0_linear" x1="70.5876" y1="70.5876" x2="411.412" y2="411.412" gradientUnits="userSpaceOnUse">
<stop stop-color="#FAE100"/>
<stop offset="0.15" stop-color="#FCB720"/>
<stop offset="0.3" stop-color="#FF7950"/>
<stop offset="0.5" stop-color="#FF1C74"/>
<stop offset="1" stop-color="#6C1CD1"/>
</linearGradient>
<clipPath id="clip0">
<rect width="482" height="482" fill="white"/>
</clipPath>
</defs>
<g clip-path="url(#clip0)">
<path d="M482 241C482 107.899 374.101 0 241 0C107.899 0 0 107.899 0 241C0 374.101 107.899 482 241 482C374.101 482 482 374.101 482 241Z" fill="url(#paint0_linear)"/>
<path opacity="0.1" d="M422.386 82.4514C387.251 146.951 337.561 213.479 275.471 275.569C213.382 337.658 146.853 387.253 82.4493 422.388C78.4115 418.879 74.49 415.222 70.6847 411.416C47.6837 389.183 29.3392 362.593 16.7209 333.197C4.10257 303.801 -2.53703 272.187 -2.81076 240.198C-3.08449 208.209 3.01313 176.486 15.1265 146.878C27.2399 117.27 45.1267 90.3703 67.7439 67.7468C90.3611 45.1233 117.256 27.229 146.86 15.1073C176.465 2.98567 208.186 -3.1208 240.175 -2.856C272.164 -2.5912 303.78 4.03957 333.18 16.6497C362.58 29.2598 389.175 47.5969 411.414 70.5917C415.22 74.3969 418.877 78.3502 422.386 82.4514V82.4514Z" fill="white"/>
<path d="M298.081 114.164H183.923C165.421 114.164 147.676 121.514 134.593 134.597C121.51 147.68 114.16 165.425 114.16 183.927V298.085C114.16 316.587 121.51 334.332 134.593 347.415C147.676 360.498 165.421 367.848 183.923 367.848H298.081C316.584 367.848 334.328 360.498 347.411 347.415C360.494 334.332 367.844 316.587 367.844 298.085V183.927C367.844 165.425 360.494 147.68 347.411 134.597C334.328 121.514 316.584 114.164 298.081 114.164ZM345.647 288.065C345.647 303.337 339.58 317.985 328.78 328.784C317.981 339.584 303.334 345.651 288.061 345.651H193.944C178.671 345.651 164.024 339.584 153.224 328.784C142.425 317.985 136.358 303.337 136.358 288.065V193.948C136.358 178.675 142.425 164.028 153.224 153.228C164.024 142.429 178.671 136.361 193.944 136.361H288.061C303.334 136.361 317.981 142.429 328.78 153.228C339.58 164.028 345.647 178.675 345.647 193.948V288.065Z" fill="white"/>
<path d="M287.269 195.211L286.667 194.608L286.16 194.101C274.17 182.153 257.931 175.447 241.004 175.455C232.456 175.513 224.003 177.255 216.129 180.581C208.254 183.907 201.112 188.751 195.111 194.838C189.109 200.925 184.366 208.135 181.151 216.056C177.937 223.976 176.315 232.453 176.378 241.001C176.365 258.348 183.203 274.999 195.404 287.33C201.38 293.379 208.502 298.177 216.353 301.444C224.204 304.71 232.627 306.38 241.131 306.356C253.886 306.089 266.287 302.115 276.823 294.921C287.359 287.726 295.573 277.621 300.465 265.838C305.356 254.055 306.713 241.103 304.37 228.562C302.027 216.021 296.085 204.433 287.269 195.211V195.211ZM241.004 284C232.475 284.12 224.103 281.7 216.953 277.048C209.803 272.397 204.198 265.724 200.85 257.878C197.503 250.032 196.565 241.368 198.156 232.987C199.746 224.607 203.793 216.889 209.782 210.815C215.771 204.741 223.431 200.585 231.788 198.877C240.146 197.168 248.822 197.984 256.714 201.22C264.607 204.456 271.358 209.966 276.11 217.05C280.862 224.134 283.4 232.471 283.401 241.001C283.443 246.609 282.379 252.17 280.27 257.366C278.162 262.563 275.05 267.293 271.113 271.286C267.175 275.279 262.49 278.458 257.323 280.639C252.157 282.821 246.612 283.963 241.004 284V284Z" fill="white"/>
<path d="M324.815 172.456C324.831 174.491 324.447 176.509 323.682 178.395C322.918 180.281 321.79 181.998 320.361 183.447C318.932 184.896 317.232 186.049 315.357 186.84C313.482 187.632 311.47 188.045 309.435 188.058C307.417 188.057 305.42 187.655 303.558 186.877C301.697 186.099 300.008 184.959 298.59 183.523C296.442 181.343 294.981 178.581 294.387 175.579C293.794 172.576 294.096 169.466 295.254 166.633C296.412 163.8 298.376 161.37 300.902 159.643C303.429 157.916 306.407 156.968 309.467 156.918C313.048 156.917 316.516 158.174 319.265 160.47L319.583 160.787C320.094 161.203 320.561 161.67 320.978 162.182L321.327 162.562C323.596 165.359 324.829 168.854 324.815 172.456V172.456Z" fill="white"/>
</g>

</svg>
