<svg width="19" height="19" viewBox="0 0 19 19" fill="none" xmlns="http://www.w3.org/2000/svg">
<path d="M10.7608 8.83475C10.6088 8.83475 10.4568 8.77686 10.3411 8.66078C9.4151 7.73483 7.90846 7.73453 6.98221 8.66078C6.75064 8.89264 6.37421 8.89264 6.14264 8.66078C5.91079 8.42892 5.91079 8.05308 6.14264 7.82122C7.53172 6.43184 9.79183 6.43214 11.1806 7.82122C11.4125 8.05308 11.4125 8.42892 11.1806 8.66078C11.0648 8.77686 10.9125 8.83475 10.7608 8.83475Z" fill="#8C00E3"/>
<path d="M10.3394 12.2217C9.42707 12.2217 8.51477 11.8744 7.82038 11.18C7.58852 10.9481 7.58852 10.5723 7.82038 10.3404C8.05194 10.1085 8.42838 10.1085 8.65994 10.3404C9.58589 11.2664 11.0925 11.2666 12.0188 10.3404C12.2503 10.1085 12.6268 10.1085 12.8583 10.3404C13.0902 10.5723 13.0902 10.9481 12.8583 11.18C12.1637 11.8744 11.2514 12.2217 10.3394 12.2217Z" fill="#8C00E3"/>
<path d="M12.4394 11.3537C12.2874 11.3537 12.1354 11.2958 12.0196 11.1798C11.7877 10.9479 11.7877 10.5721 12.0196 10.3402L15.3363 7.0235C15.5678 6.79164 15.9443 6.79164 16.1758 7.0235C16.4077 7.25536 16.4077 7.63121 16.1758 7.86307L12.8592 11.1798C12.7434 11.2958 12.5914 11.3537 12.4394 11.3537Z" fill="#8C00E3"/>
<path d="M7.44328 16.3495C7.29128 16.3495 7.13929 16.2916 7.0235 16.1755C6.79164 15.9437 6.79164 15.5678 7.0235 15.336L8.87749 13.482C9.10905 13.2501 9.48549 13.2501 9.71705 13.482C9.94891 13.7139 9.94891 14.0897 9.71705 14.3216L7.86307 16.1755C7.74729 16.2916 7.59528 16.3495 7.44328 16.3495Z" fill="#8C00E3"/>
<path d="M3.24407 12.1508C3.09207 12.1508 2.94007 12.0929 2.82429 11.9768C2.59243 11.745 2.59243 11.3691 2.82429 11.1373L6.14097 7.82087C6.37283 7.58901 6.74897 7.58901 6.98053 7.82087C7.21239 8.05273 7.21239 8.42857 6.98053 8.66043L3.66385 11.9768C3.54777 12.0926 3.39577 12.1508 3.24407 12.1508Z" fill="#8C00E3"/>
<path d="M9.70305 5.69259C9.55105 5.69259 9.39935 5.6347 9.28327 5.51891C9.05141 5.28705 9.05141 4.91121 9.28327 4.67905L11.1373 2.82477C11.3691 2.59291 11.745 2.59291 11.9771 2.82477C12.209 3.05663 12.209 3.43248 11.9771 3.66463L10.1231 5.51891C10.0071 5.6344 9.85475 5.69259 9.70305 5.69259Z" fill="#8C00E3"/>
<path d="M5.34398 17.1998C4.42575 17.1998 3.50752 16.8584 2.825 16.1755C1.45937 14.8099 1.45937 12.5029 2.825 11.1373C3.05656 10.9054 3.433 10.9054 3.66456 11.1373C3.89642 11.3691 3.89642 11.745 3.66456 11.9768C2.75434 12.8871 2.75434 14.4255 3.66456 15.3357C4.57478 16.2459 6.11319 16.2459 7.02341 15.3357C7.25497 15.1038 7.63141 15.1038 7.86297 15.3357C8.09483 15.5675 8.09483 15.9434 7.86297 16.1752C7.18045 16.8584 6.26222 17.1998 5.34398 17.1998Z" fill="#8C00E3"/>
<path d="M15.755 8.03694C15.603 8.03694 15.451 7.97905 15.3352 7.86297C15.1033 7.63111 15.1033 7.25526 15.3352 7.02341C16.2454 6.11319 16.2454 4.57478 15.3352 3.66456C14.425 2.75434 12.8866 2.75434 11.9763 3.66456C11.7448 3.89642 11.3683 3.89642 11.1368 3.66456C10.9049 3.4327 10.9049 3.05686 11.1368 2.825C12.5024 1.45937 14.8094 1.45937 16.1751 2.825C17.5407 4.19062 17.5407 6.49764 16.1751 7.86327C16.059 7.97905 15.907 8.03694 15.755 8.03694Z" fill="#8C00E3"/>
</svg>
