<svg width="30" height="30" viewBox="0 0 30 30" fill="none" xmlns="http://www.w3.org/2000/svg">
<g clip-path="url(#clip0_3245_13159)">
<path d="M18.0786 14.1013L13.6602 11.6837C13.4061 11.5447 13.1058 11.5499 12.8568 11.6975C12.6076 11.8452 12.459 12.1061 12.459 12.3957V17.1894C12.459 17.4776 12.6067 17.7381 12.8542 17.886C12.9834 17.9632 13.1267 18.0019 13.2703 18.0019C13.4018 18.0019 13.5337 17.9694 13.655 17.9041L18.0736 15.5282C18.3359 15.387 18.4996 15.1144 18.5008 14.8163C18.5019 14.5183 18.3402 14.2444 18.0786 14.1013ZM13.631 16.5864V13.0036L16.9333 14.8105L13.631 16.5864Z" fill="white"/>
<path d="M24.8528 10.9972L24.8519 10.988C24.835 10.827 24.6664 9.39514 23.9703 8.66684C23.1657 7.81021 22.2535 7.70615 21.8148 7.65625C21.7785 7.65213 21.7452 7.64832 21.7155 7.64435L21.6805 7.64069C19.0365 7.44843 15.0434 7.42218 15.0035 7.42203L15 7.42188L14.9965 7.42203C14.9565 7.42218 10.9634 7.44843 8.29558 7.64069L8.26033 7.64435C8.23195 7.64816 8.20067 7.65167 8.16664 7.65564C7.73299 7.70569 6.83059 7.80991 6.02371 8.69751C5.36072 9.41803 5.16907 10.8192 5.14938 10.9767L5.14709 10.9972C5.14114 11.0641 5 12.6588 5 14.2598V15.7564C5 17.3573 5.14114 18.952 5.14709 19.0192L5.14816 19.0292C5.1651 19.1876 5.33356 20.5933 6.02645 21.3219C6.78298 22.1498 7.73955 22.2594 8.25408 22.3183C8.33541 22.3276 8.40544 22.3355 8.4532 22.3439L8.49944 22.3503C10.0261 22.4956 14.8126 22.5671 15.0155 22.57L15.0216 22.5702L15.0277 22.57C15.0677 22.5699 19.0606 22.5436 21.7046 22.3514L21.7396 22.3477C21.773 22.3433 21.8105 22.3393 21.8517 22.3351C22.283 22.2893 23.1805 22.1942 23.9762 21.3187C24.6392 20.598 24.831 19.1968 24.8505 19.0395L24.8528 19.019C24.8588 18.9519 25.0001 17.3573 25.0001 15.7564V14.2598C24.9999 12.6588 24.8588 11.0643 24.8528 10.9972ZM23.8279 15.7564C23.8279 17.2382 23.6985 18.7642 23.6863 18.9043C23.6366 19.2902 23.4344 20.1767 23.1113 20.5278C22.6133 21.0757 22.1017 21.1301 21.7281 21.1696C21.683 21.1743 21.6412 21.1789 21.6033 21.1836C19.046 21.3686 15.2037 21.3969 15.0267 21.398C14.8281 21.3951 10.1117 21.3229 8.63158 21.1855C8.55574 21.1731 8.4738 21.1636 8.38744 21.1539C7.94936 21.1037 7.34969 21.035 6.88857 20.5278L6.87774 20.5162C6.56036 20.1855 6.36398 19.3565 6.31408 18.9088C6.30477 18.8029 6.17202 17.2589 6.17202 15.7564V14.2598C6.17202 12.7797 6.30111 11.2553 6.31362 11.1124C6.37298 10.6578 6.57897 9.82498 6.88857 9.48837C7.40188 8.9238 7.9431 8.86124 8.30107 8.81989C8.33525 8.81592 8.36714 8.81226 8.39659 8.80844C10.9912 8.62259 14.8611 8.59497 15 8.5939C15.1388 8.59482 19.0074 8.62259 21.5789 8.80844C21.6105 8.81241 21.645 8.81638 21.6821 8.82065C22.0503 8.86261 22.6067 8.92609 23.1175 9.47083L23.1222 9.47586C23.4396 9.80652 23.6359 10.65 23.6858 11.1067C23.6947 11.2067 23.8279 12.7541 23.8279 14.2598V15.7564Z" fill="white"/>
</g>
<defs>
<clipPath id="clip0_3245_13159">
<rect width="20" height="20" fill="white" transform="translate(5 5)"/>
</clipPath>
</defs>
</svg>
